# xmcd CD database file
#
# Track frame offsets:
#	155
#	9710
#	30637
#	43772
#	59937
#	74497
#	94285
#	109070
#	123192
#	134990
#	148857
#	168657
#	186120
#	199317
#	219210
#
# Disc length: 3245 seconds
#
# Revision: 0
# Processed by: cddbd v1.4PL0 Copyright (c) Steve Scherf et al.
# Submitted via: CDex 1.50
#
DISCID=f40cab0f
DTITLE=Castro - Shockgolf
DYEAR=2003
DGENRE=Nederhop
TTITLE0=Shockgolf
TTITLE1=Absoluut heersschap
TTITLE2=De skit
TTITLE3=Optreden ( April 2002 )
TTITLE4=Audy
TTITLE5=Checht uw media
TTITLE6=Staten-generaal
TTITLE7='k ben slecht
TTITLE8=Muziek
TTITLE9=Haar
TTITLE10=Lente 2020
TTITLE11=Stroopwafels
TTITLE12=Palestina
TTITLE13=Rappers hier
TTITLE14=A tot Z
EXTD=YEAR: 2003
EXTT0=
EXTT1=
EXTT2=
EXTT3=
EXTT4=
EXTT5=
EXTT6=
EXTT7=
EXTT8=
EXTT9=
EXTT10=
EXTT11=
EXTT12=
EXTT13=
EXTT14=
PLAYORDER=
